# xmcd
#
# Track frame offsets:
#	150
#	13294
#	26218
#	41200
#	53147
#	68285
#	82755
#	96184
#	111189
#	126035
#	141557
#	158061
#	172554
#	186256
#	200349
#	214635
#	229168
#	242412
#
# Disc length: 3419 seconds
#
# Revision: 0
# Processed by: cddbd v1.5.2PL0 Copyright (c) Steve Scherf et al.
# Submitted via: EasyCDDAExtractor 16.0.8.2
#
DISCID=ec0d5912
DTITLE=Συλλογικός δίσκος - Σμύρνη Η μουσική ζωή 1900-1922
DYEAR=1900
DGENRE=Ποικίλη
TTITLE0=Μενεμενλής Λευτέρης - Σμυρνέϊκο μανέ μινόρε [Κωνσταντινούπολη 1911]
TTITLE1=Σμυρναϊκή Εστουδιαντίνα - Ατζιγγάνα [Κωνσταντινούπολη 1908-9;]
TTITLE2=Σμυρναϊκή Εστουδιαντίνα - Χανουμάκι [Κωνσταντινούπολη 1908-9;]
TTITLE3=Ovannes - Μπαχάρ Γκελντί [Σμύρνη 1912]
TTITLE4=Ελληνική Εστουδιαντίνα - Τσιφτέ τελλή [Σμύρνη 1912]
TTITLE5=Μενεμενλής Λευτέρης - Η θάλασσα [Κωνσταντινούπολη 1911]
TTITLE6=Μενεμενλής Λευτέρης - Νέο μελαχροινό [Σμύρνη 1910]
TTITLE7=Σαβαρής Γιώργος-Εστουδιαντίνα Βασιλάκη (Σιδερή) - Σμυρνιά [Σμύρνη 1911
TTITLE7=]
TTITLE8=Σμυρναϊκή Εστουδιαντίνα - Σμυρνιοπούλα [Κωνσταντινούπολη 1908-9;]
TTITLE9=Estoudiantina Tchanaka - Νύχτα εύμορφη [Κωνσταντινούπολη 1911;]
TTITLE10=Κοκκίνης Γιάννης - Ο γέρο Δήμος [Κωνσταντινούπολη 1909]
TTITLE11=Μενεμενλής Λευτέρης - Κλέφτικο Παύλος Μελάς [Σμύρνη 1912]
TTITLE12=Μενεμενλής Λευτέρης - Γιαννιώτικο [Σμύρνη 1910]
TTITLE13=Τσανάκας Γιάννης - Αδαμαμάν [Σμύρνη 1910]
TTITLE14=Μενεμενλής Λευτέρης - Σμυρνέϊκο μανέ ματζόρε [Κωνσταντινούπολη 1911]
TTITLE15=Μενεμενλής Λευτέρης - Απτάλ χαβασί-τετράχορδον [Σμύρνη 1912]
TTITLE16=Estoudiantina Smyrniote - Μενεμέν ζεϊβέκ [Κωνσταντινούπολη - 1910-11;]
TTITLE17=Αγγελόπουλος Γιάννης - Ανάμνησις Σμύρνης [Αθήνα 1906-7]
EXTD=
EXTT0=
EXTT1=
EXTT2=
EXTT3=
EXTT4=
EXTT5=
EXTT6=
EXTT7=
EXTT8=
EXTT9=
EXTT10=
EXTT11=
EXTT12=
EXTT13=
EXTT14=
EXTT15=
EXTT16=
EXTT17=
PLAYORDER=
